<svg xmlns="http://www.w3.org/2000/svg" width="340px" height="54px">
    <defs>
        <radialGradient fx="50%" fy="50%" id="a">
            <stop stopColor="#FFEDA4" offset="0%"/>
            <stop stopColor="#FFE171" offset="55.604%"/>
            <stop stopColor="#FFB800" offset="100%"/>
        </radialGradient>
    </defs>
    <g fill="none" fillRule="evenodd">
        <g fill="#FFF">
            <path d="M78.537 18.35v-1.143h4.465c.918 0 1.572.178 1.962.534.391.356.586.821.586 1.396 0 .562-.195 1.022-.586 1.378-.39.356-1.044.534-1.962.534h-.651v13.983c0 1.35-.282 2.527-.847 3.533-.564 1.006-1.429 1.871-2.595 2.596-1.165.725-2.48 1.087-3.943 1.087H70.65c-.918 0-1.572-.178-1.963-.534-.39-.356-.585-.815-.585-1.378 0-.575.195-1.04.585-1.396.391-.356 1.045-.534 1.963-.534h4.204c1.166 0 2.071-.319 2.716-.956.645-.638.967-1.444.967-2.418v-1.875c-.843.55-1.702.963-2.576 1.237a8.91 8.91 0 0 1-2.688.413c-2.592 0-4.762-.872-6.51-2.615-1.75-1.743-2.624-3.895-2.624-6.457 0-2.574.875-4.733 2.623-6.476 1.749-1.743 3.919-2.615 6.51-2.615.968 0 1.89.14 2.763.422.875.281 1.709.71 2.502 1.284zm-.018 7.366c0-1.412-.518-2.636-1.554-3.674-1.035-1.037-2.278-1.555-3.73-1.555-1.45 0-2.693.518-3.729 1.555-1.036 1.038-1.553 2.262-1.553 3.674 0 1.425.517 2.652 1.553 3.683 1.036 1.031 2.279 1.547 3.73 1.547 1.45 0 2.694-.516 3.73-1.547 1.035-1.03 1.553-2.258 1.553-3.683zM96.362 9.915v4.068h-4.539V9.915zm.521 7.292v13.176h4.576c.918 0 1.572.178 1.963.535.39.356.586.821.586 1.396 0 .562-.195 1.021-.586 1.378-.39.356-1.045.534-1.963.534H88.494c-.918 0-1.572-.178-1.963-.534-.39-.357-.586-.822-.586-1.397 0-.562.195-1.021.586-1.377.39-.357 1.045-.535 1.963-.535h4.576V21.05H90c-.905 0-1.556-.178-1.953-.534-.397-.356-.595-.822-.595-1.397 0-.562.195-1.021.586-1.377.39-.356 1.045-.534 1.962-.534h6.883z"/>
            <path d="M108.522 17.207V18.5a7.22 7.22 0 0 1 2.297-1.35c.838-.3 1.746-.45 2.726-.45 2.257 0 4.043.706 5.357 2.118 1.042 1.125 1.563 2.6 1.563 4.424v7.141c.806 0 1.401.178 1.786.535.384.356.576.821.576 1.396 0 .562-.195 1.021-.586 1.378-.39.356-1.045.534-1.962.534h-3.442c-.917 0-1.572-.178-1.962-.534-.39-.357-.586-.822-.586-1.397 0-.562.192-1.021.576-1.377.385-.357.98-.535 1.786-.535V23.13c0-.838-.223-1.45-.67-1.837-.582-.5-1.457-.75-2.622-.75-.88 0-1.653.172-2.316.515-.664.344-1.504 1.072-2.52 2.184v7.141c.979 0 1.611.094 1.897.282.607.374.911.924.911 1.649 0 .562-.195 1.021-.586 1.378-.39.356-1.045.534-1.962.534h-4.335c-.918 0-1.572-.178-1.962-.534-.391-.357-.586-.822-.586-1.397 0-.7.297-1.243.893-1.63.297-.188.936-.282 1.916-.282V21.05c-.806 0-1.402-.181-1.786-.544-.385-.362-.577-.824-.577-1.387 0-.562.195-1.021.586-1.377.39-.356 1.045-.534 1.963-.534h3.627zm29.796 1.143v-1.143h4.464c.918 0 1.572.178 1.963.534.39.356.586.821.586 1.396 0 .562-.195 1.022-.586 1.378-.39.356-1.045.534-1.963.534h-.65v13.983c0 1.35-.283 2.527-.847 3.533-.564 1.006-1.43 1.871-2.595 2.596-1.166.725-2.48 1.087-3.944 1.087h-4.316c-.917 0-1.571-.178-1.962-.534-.39-.356-.586-.815-.586-1.378 0-.575.195-1.04.586-1.396.39-.356 1.045-.534 1.962-.534h4.205c1.165 0 2.07-.319 2.716-.956.644-.638.967-1.444.967-2.418v-1.875c-.843.55-1.702.963-2.577 1.237a8.91 8.91 0 0 1-2.688.413c-2.592 0-4.762-.872-6.51-2.615-1.749-1.743-2.623-3.895-2.623-6.457 0-2.574.874-4.733 2.623-6.476 1.748-1.743 3.918-2.615 6.51-2.615.968 0 1.889.14 2.763.422.874.281 1.708.71 2.502 1.284zm-.019 7.366c0-1.412-.518-2.636-1.553-3.674-1.036-1.037-2.279-1.555-3.73-1.555-1.45 0-2.694.518-3.73 1.555-1.035 1.038-1.553 2.262-1.553 3.674 0 1.425.518 2.652 1.553 3.683 1.036 1.031 2.28 1.547 3.73 1.547 1.451 0 2.694-.516 3.73-1.547 1.035-1.03 1.553-2.258 1.553-3.683zm27.136 1.95H149.79c.397 1 1.101 1.805 2.112 2.417 1.01.613 2.378.919 4.102.919 1.413 0 3.292-.306 5.636-.919.967-.25 1.637-.374 2.009-.374.508 0 .936.18 1.284.543.347.363.52.819.52 1.368 0 .5-.186.925-.558 1.275-.496.462-1.705.903-3.627 1.321-1.922.419-3.77.628-5.544.628-3.05 0-5.49-.868-7.32-2.605-1.829-1.737-2.743-3.874-2.743-6.41 0-2.7.989-4.896 2.967-6.589 1.978-1.693 4.257-2.54 6.836-2.54 1.55 0 2.973.275 4.27.825 1.295.55 2.26 1.144 2.892 1.78.893.926 1.63 2.069 2.214 3.43.396.95.595 2.05.595 3.3v1.63zm-4.223-3.843c-.583-1.1-1.345-1.921-2.288-2.465-.942-.543-2.065-.815-3.367-.815-1.29 0-2.406.272-3.348.815-.943.544-1.712 1.365-2.307 2.465h11.31zm14.514-6.616v2.399c1.6-1.162 2.862-1.937 3.785-2.324.924-.388 1.79-.582 2.595-.582 1.24 0 2.444.463 3.61 1.387.793.625 1.19 1.263 1.19 1.912 0 .55-.19 1.016-.568 1.397a1.857 1.857 0 0 1-1.367.571c-.471 0-.967-.237-1.488-.712-.52-.475-.986-.712-1.395-.712-.533 0-1.33.337-2.39 1.012s-2.385 1.687-3.972 3.037v5.791h5.432c.917 0 1.572.178 1.962.535.39.356.586.821.586 1.396 0 .562-.195 1.021-.586 1.378-.39.356-1.045.534-1.962.534h-11.515c-.918 0-1.572-.178-1.963-.534-.39-.357-.586-.822-.586-1.397 0-.562.196-1.021.586-1.377.391-.357 1.045-.535 1.963-.535h2.27V21.05h-1.377c-.918 0-1.572-.178-1.963-.534-.39-.356-.586-.822-.586-1.397 0-.562.196-1.021.586-1.377.391-.356 1.045-.534 1.963-.534h5.19z"/>
        </g>
        <g transform="rotate(-16 29.724 22.317)" fillRule="nonzero">
            <circle fill="url(#a)" cx="25.5" cy="25.5" r="25.5"/>
            <path d="M7.961 43.276l36-36M43 43L7 7" stroke="#FFF"/>
            <circle stroke="#FFF" strokeWidth="2" cx="25.5" cy="25.5" r="25.5"/>
            <circle stroke="#FFF" strokeWidth="2" cx="25.5" cy="25.5" r="12.5"/>
        </g>
        <path d="M213.53 17.932v2.839c.927-1.126 1.923-1.973 2.987-2.542 1.063-.57 2.319-.854 3.766-.854 1.534 0 2.95.359 4.25 1.076a7.558 7.558 0 0 1 3.014 2.997c.712 1.28 1.067 2.625 1.067 4.035 0 2.24-.8 4.154-2.403 5.743-1.601 1.59-3.571 2.384-5.91 2.384-2.782 0-5.04-1.131-6.772-3.395v9.389h3.785c.372 0 .637.07.798.213.161.142.242.33.242.566 0 .222-.08.408-.242.556-.16.149-.426.223-.798.223h-7.44c-.371 0-.637-.071-.798-.213a.719.719 0 0 1-.241-.566c0-.235.08-.424.241-.566.161-.142.427-.213.798-.213h2.097V19.509h-2.097c-.371 0-.637-.074-.798-.223a.747.747 0 0 1-.241-.575c0-.223.08-.408.241-.557.161-.148.427-.222.798-.222h3.655zm13.507 7.551c0-1.793-.652-3.33-1.957-4.61-1.305-1.28-2.898-1.92-4.778-1.92-1.893 0-3.495.642-4.806 1.929-1.311 1.286-1.967 2.82-1.967 4.601 0 1.794.656 3.334 1.967 4.62 1.311 1.287 2.913 1.93 4.806 1.93 1.868 0 3.457-.64 4.768-1.92 1.312-1.28 1.967-2.824 1.967-4.63zm9.124-7.551v3.933c2.028-1.83 3.547-3.009 4.555-3.534 1.008-.526 1.939-.789 2.792-.789.928 0 1.791.312 2.589.937s1.197 1.098 1.197 1.42a.792.792 0 0 1-.817.816.7.7 0 0 1-.315-.065c-.087-.043-.248-.183-.483-.418-.433-.433-.81-.73-1.131-.89a2.106 2.106 0 0 0-.947-.241c-.68 0-1.5.272-2.458.816-.959.544-2.62 1.874-4.982 3.99v8.534h6.902c.384 0 .656.072.817.214.16.142.24.33.24.566 0 .222-.08.408-.24.556-.161.149-.433.223-.817.223h-12.227c-.371 0-.637-.071-.798-.213a.698.698 0 0 1-.241-.548.69.69 0 0 1 .231-.529c.155-.142.424-.213.808-.213h3.766V19.51h-2.876c-.37 0-.637-.074-.798-.223a.747.747 0 0 1-.24-.575.74.74 0 0 1 .231-.557c.155-.148.424-.222.807-.222h4.435zm29.2 8.07c0 2.376-.85 4.405-2.552 6.087-1.7 1.682-3.75 2.523-6.15 2.523-2.425 0-4.484-.844-6.18-2.532-1.694-1.689-2.541-3.714-2.541-6.077 0-2.375.847-4.407 2.542-6.095 1.695-1.689 3.754-2.533 6.179-2.533 2.4 0 4.45.841 6.15 2.523 1.701 1.683 2.552 3.718 2.552 6.105zm-1.577 0c0-1.954-.696-3.617-2.088-4.99-1.391-1.373-3.077-2.06-5.056-2.06-1.98 0-3.665.69-5.056 2.069-1.392 1.38-2.088 3.04-2.088 4.982 0 1.93.696 3.587 2.088 4.973 1.391 1.385 3.077 2.078 5.056 2.078 1.98 0 3.665-.69 5.056-2.07 1.392-1.378 2.088-3.039 2.088-4.981zm13.725-16.067v4.026h-2.301V9.935h2.3zm.093 9.574h-9.26c-.37 0-.636-.074-.797-.223a.747.747 0 0 1-.241-.575.74.74 0 0 1 .232-.557c.154-.148.423-.222.807-.222h10.817v17.163c0 1.323-.272 2.43-.816 3.321-.544.89-1.36 1.614-2.45 2.17-.754.384-1.65.576-2.69.576h-4.954c-.371 0-.637-.071-.798-.213a.719.719 0 0 1-.241-.566c0-.235.08-.427.241-.575.161-.149.427-.223.798-.223l4.917.019c1.324 0 2.394-.433 3.21-1.3.816-.865 1.225-1.935 1.225-3.21V19.51zm24.728 6.828h-15.883c.272 2.016 1.116 3.64 2.533 4.87 1.416 1.231 3.17 1.847 5.26 1.847 1.163 0 2.381-.192 3.655-.575 1.274-.384 2.313-.891 3.117-1.522.235-.186.44-.278.613-.278a.7.7 0 0 1 .52.232.764.764 0 0 1 .222.547c0 .21-.099.414-.297.612-.594.619-1.648 1.197-3.164 1.735-1.515.538-3.07.807-4.666.807-2.672 0-4.902-.875-6.689-2.625s-2.681-3.869-2.681-6.355c0-2.264.838-4.206 2.514-5.826 1.676-1.62 3.751-2.431 6.225-2.431 2.548 0 4.645.832 6.29 2.496 1.645 1.663 2.456 3.819 2.43 6.466zm-1.577-1.577c-.31-1.72-1.123-3.117-2.44-4.194-1.318-1.076-2.886-1.614-4.704-1.614-1.818 0-3.383.532-4.694 1.596s-2.128 2.468-2.45 4.212h14.288zm18.27-5.251v-.52c0-.383.075-.655.223-.816a.726.726 0 0 1 .557-.241c.235 0 .427.08.575.24.149.162.223.434.223.817v3.526c-.012.383-.09.655-.232.816a.719.719 0 0 1-.566.241.718.718 0 0 1-.529-.213c-.142-.142-.225-.38-.25-.714-.074-.879-.653-1.714-1.735-2.505-1.082-.792-2.539-1.188-4.37-1.188-2.313 0-4.07.724-5.27 2.171-1.2 1.447-1.799 3.105-1.799 4.973 0 2.016.662 3.68 1.985 4.99 1.324 1.312 3.037 1.968 5.14 1.968 1.212 0 2.446-.223 3.702-.668 1.255-.446 2.39-1.163 3.404-2.153.26-.247.49-.37.687-.37.21 0 .387.07.529.213a.718.718 0 0 1 .213.528c0 .532-.625 1.207-1.874 2.023-2.016 1.324-4.261 1.985-6.735 1.985-2.511 0-4.574-.8-6.188-2.403-1.614-1.601-2.422-3.633-2.422-6.095 0-2.51.826-4.595 2.477-6.253 1.652-1.657 3.733-2.486 6.244-2.486 2.387 0 4.391.711 6.012 2.134zm8.92-1.577h8.461c.371 0 .637.074.798.222.161.149.241.34.241.575 0 .223-.08.409-.24.557-.162.149-.428.223-.799.223h-8.46V29.88c0 .903.361 1.657 1.085 2.264.724.606 1.784.909 3.182.909 1.051 0 2.19-.158 3.414-.473 1.225-.316 2.177-.671 2.858-1.067.247-.161.451-.242.612-.242.198 0 .37.078.52.232a.764.764 0 0 1 .222.548c0 .185-.08.358-.241.52-.396.407-1.358.85-2.885 1.326-1.528.476-2.99.714-4.389.714-1.818 0-3.265-.426-4.341-1.28-1.077-.853-1.615-2.004-1.615-3.451V19.509h-2.876c-.37 0-.637-.074-.798-.223a.747.747 0 0 1-.24-.575c0-.223.08-.408.24-.557.161-.148.427-.222.798-.222h2.876V13.33c0-.371.075-.637.223-.798a.726.726 0 0 1 .557-.241c.235 0 .426.08.575.241.148.161.222.427.222.798v4.602z"
              fill="#FFBF13"/>
        <path d="M197.5 9v33" stroke="#FFBF13" strokeWidth="2" strokeLinecap="round"/>
    </g>
</svg>